<svg width="328" height="87" viewBox="0 0 328 87" fill="none" xmlns="http://www.w3.org/2000/svg">
<path d="M327.609 70.5521V86.562H318.276C311.625 86.562 306.439 84.9058 302.72 81.5934C299.001 78.2074 297.142 72.7236 297.142 65.1419V40.6302H289.847V24.9516H297.142V9.93539H315.487V24.9516H327.502V40.6302H315.487V65.3627C315.487 67.2029 315.916 68.5279 316.774 69.3376C317.632 70.1473 319.063 70.5521 321.065 70.5521H327.609Z" fill="white"/>
<path d="M286.196 40.632H276.326V86.5638H257.981V40.632H251.33V24.9533H257.981V23.1867C257.981 15.605 260.091 9.86356 264.311 5.9623C268.53 1.98743 274.717 0 282.87 0C284.229 0 285.23 0.0368028 285.874 0.110411V16.1203C282.369 15.8995 279.902 16.4147 278.472 17.6661C277.041 18.9174 276.326 21.1625 276.326 24.4013V24.9533H286.196V40.632Z" fill="white"/>
<path d="M180.268 55.6483C180.268 49.3179 181.412 43.7605 183.701 38.9759C186.061 34.1913 189.243 30.5109 193.248 27.9346C197.254 25.3583 201.723 24.0701 206.658 24.0701C210.878 24.0701 214.561 24.9534 217.708 26.72C220.927 28.4867 223.394 30.8053 225.11 33.6761V24.9534H243.455V86.5639H225.11V77.8413C223.322 80.712 220.819 83.0307 217.601 84.7973C214.454 86.5639 210.771 87.4472 206.551 87.4472C201.688 87.4472 197.254 86.159 193.248 83.5827C189.243 80.9328 186.061 77.2156 183.701 72.431C181.412 67.5728 180.268 61.9786 180.268 55.6483ZM225.11 55.7587C225.11 51.0477 223.823 47.3305 221.248 44.607C218.745 41.8834 215.67 40.5217 212.022 40.5217C208.375 40.5217 205.264 41.8834 202.689 44.607C200.186 47.2569 198.934 50.9373 198.934 55.6483C198.934 60.3592 200.186 64.1132 202.689 66.9104C205.264 69.6339 208.375 70.9957 212.022 70.9957C215.67 70.9957 218.745 69.6339 221.248 66.9104C223.823 64.1869 225.11 60.4696 225.11 55.7587Z" fill="white"/>
<path d="M108.026 55.6483C108.026 49.3179 109.17 43.7605 111.459 38.9759C113.819 34.1913 117.001 30.5109 121.007 27.9346C125.012 25.3583 129.482 24.0701 134.417 24.0701C138.636 24.0701 142.319 24.9534 145.466 26.72C148.685 28.4867 151.152 30.8053 152.869 33.6761V24.9534H171.213V86.5639H152.869V77.8413C151.081 80.712 148.577 83.0307 145.359 84.7973C142.212 86.5639 138.529 87.4472 134.309 87.4472C129.446 87.4472 125.012 86.159 121.007 83.5827C117.001 80.9328 113.819 77.2156 111.459 72.431C109.17 67.5728 108.026 61.9786 108.026 55.6483ZM152.869 55.7587C152.869 51.0477 151.581 47.3305 149.007 44.607C146.503 41.8834 143.428 40.5217 139.78 40.5217C136.133 40.5217 133.022 41.8834 130.447 44.607C127.944 47.2569 126.692 50.9373 126.692 55.6483C126.692 60.3592 127.944 64.1132 130.447 66.9104C133.022 69.6339 136.133 70.9957 139.78 70.9957C143.428 70.9957 146.503 69.6339 149.007 66.9104C151.581 64.1869 152.869 60.4696 152.869 55.7587Z" fill="white"/>
<path d="M84.7005 35.2206C86.8461 31.8346 89.5281 29.1846 92.7465 27.2708C95.9649 25.2834 99.5409 24.2897 103.474 24.2897V44.2744H98.4324C93.8551 44.2744 90.4221 45.3049 88.1335 47.366C85.8448 49.3534 84.7005 52.8866 84.7005 57.9656V86.5626H66.3557V24.9521H84.7005V35.2206Z" fill="white"/>
<path d="M37.1918 86.5635L18.9542 60.7269V86.5635H0.609375V4.85793H18.9542V50.0168L37.0845 24.9531H59.7205L34.8316 55.8687L59.9351 86.5635H37.1918Z" fill="white"/>
</svg>
