<svg width="146" height="40" viewBox="0 0 146 40" fill="none" xmlns="http://www.w3.org/2000/svg">
<path d="M145.297 27.357V31.863H142.593C140.667 31.863 139.165 31.3969 138.087 30.4646C137.01 29.5116 136.471 27.9682 136.471 25.8343V18.9354H134.358V14.5227H136.471V10.2963H141.785V14.5227H145.266V18.9354H141.785V25.8965C141.785 26.4144 141.91 26.7873 142.158 27.0152C142.407 27.2431 142.821 27.357 143.401 27.357H145.297Z" fill="black"/>
<path d="M133.301 18.936H130.442V31.8635H125.128V18.936H123.201V14.5232H125.128V14.026C125.128 11.8921 125.739 10.2761 126.961 9.1781C128.183 8.05937 129.976 7.5 132.337 7.5C132.731 7.5 133.021 7.51036 133.207 7.53108V12.0371C132.192 11.9749 131.478 12.12 131.063 12.4722C130.649 12.8243 130.442 13.4562 130.442 14.3678V14.5232H133.301V18.936Z" fill="black"/>
<path d="M102.616 23.1623C102.616 21.3806 102.948 19.8165 103.611 18.4698C104.294 17.1232 105.216 16.0874 106.376 15.3622C107.537 14.6371 108.831 14.2746 110.261 14.2746C111.483 14.2746 112.55 14.5232 113.462 15.0204C114.394 15.5176 115.109 16.1702 115.606 16.9782V14.5232H120.92V31.8636H115.606V29.4086C115.088 30.2165 114.363 30.8691 113.431 31.3664C112.519 31.8636 111.452 32.1122 110.23 32.1122C108.821 32.1122 107.537 31.7496 106.376 31.0245C105.216 30.2787 104.294 29.2325 103.611 27.8859C102.948 26.5185 102.616 24.944 102.616 23.1623ZM115.606 23.1934C115.606 21.8675 115.233 20.8213 114.487 20.0547C113.762 19.2882 112.871 18.9049 111.815 18.9049C110.758 18.9049 109.857 19.2882 109.111 20.0547C108.386 20.8005 108.023 21.8364 108.023 23.1623C108.023 24.4882 108.386 25.5448 109.111 26.3321C109.857 27.0986 110.758 27.4819 111.815 27.4819C112.871 27.4819 113.762 27.0986 114.487 26.3321C115.233 25.5655 115.606 24.5193 115.606 23.1934Z" fill="black"/>
<path d="M81.6897 23.1623C81.6897 21.3806 82.0212 19.8165 82.6842 18.4698C83.3678 17.1232 84.2897 16.0874 85.4499 15.3622C86.6101 14.6371 87.9049 14.2746 89.3344 14.2746C90.5567 14.2746 91.6237 14.5232 92.5352 15.0204C93.4675 15.5176 94.1823 16.1702 94.6795 16.9782V14.5232H99.9935V31.8636H94.6795V29.4086C94.1615 30.2165 93.4364 30.8691 92.5042 31.3664C91.5926 31.8636 90.5257 32.1122 89.3033 32.1122C87.8946 32.1122 86.6101 31.7496 85.4499 31.0245C84.2897 30.2787 83.3678 29.2325 82.6842 27.8859C82.0212 26.5185 81.6897 24.944 81.6897 23.1623ZM94.6795 23.1934C94.6795 21.8675 94.3066 20.8213 93.5607 20.0547C92.8356 19.2882 91.9448 18.9049 90.8882 18.9049C89.8316 18.9049 88.9304 19.2882 88.1846 20.0547C87.4595 20.8005 87.0969 21.8364 87.0969 23.1623C87.0969 24.4882 87.4595 25.5448 88.1846 26.3321C88.9304 27.0986 89.8316 27.4819 90.8882 27.4819C91.9448 27.4819 92.8356 27.0986 93.5607 26.3321C94.3066 25.5655 94.6795 24.5193 94.6795 23.1934Z" fill="black"/>
<path d="M74.9331 17.4129C75.5546 16.4599 76.3315 15.7141 77.2638 15.1754C78.1961 14.6161 79.2319 14.3364 80.3714 14.3364V19.9611H78.9108C77.5849 19.9611 76.5905 20.2512 75.9275 20.8312C75.2646 21.3906 74.9331 22.385 74.9331 23.8145V31.8632H69.6191V14.5228H74.9331V17.4129Z" fill="black"/>
<path d="M61.1711 31.8635L55.8882 24.5917V31.8635H50.5742V8.86727H55.8882V21.5773L61.14 14.5231H67.6971L60.4874 23.2244L67.7592 31.8635H61.1711Z" fill="black"/>
<path d="M32.0967 2.63965V32.0811H2.65527V2.63965H32.0967Z" stroke="#FFD738" stroke-width="5.27919"/>
<path d="M29.4573 5.2793H5.29443V37.5636C5.29443 38.9092 6.38531 40.0001 7.73098 40.0001H37.5787C38.9244 40.0001 40.0152 38.9092 40.0152 37.5636V7.71585C40.0152 6.37018 38.9244 5.2793 37.5787 5.2793H34.7365L34.7361 34.7209H10.5736V10.5585H29.4573V5.2793Z" fill="#385CFF"/>
</svg>
